<svg id="visual" viewBox="0 0 900 600" width="900" height="600" xmlns="http://www.w3.org/2000/svg" xmlns:xlink="http://www.w3.org/1999/xlink" version="1.1"><rect x="0" y="0" width="900" height="600" fill="#cfdbd5"></rect><path d="M0 386L21.5 394.3C43 402.7 86 419.3 128.8 424.7C171.7 430 214.3 424 257.2 410.5C300 397 343 376 385.8 377C428.7 378 471.3 401 514.2 406.8C557 412.7 600 401.3 642.8 399.3C685.7 397.3 728.3 404.7 771.2 414.3C814 424 857 436 878.5 442L900 448L900 601L878.5 601C857 601 814 601 771.2 601C728.3 601 685.7 601 642.8 601C600 601 557 601 514.2 601C471.3 601 428.7 601 385.8 601C343 601 300 601 257.2 601C214.3 601 171.7 601 128.8 601C86 601 43 601 21.5 601L0 601Z" fill="#f5cb5c"></path><path d="M0 447L21.5 442.7C43 438.3 86 429.7 128.8 424.7C171.7 419.7 214.3 418.3 257.2 423.2C300 428 343 439 385.8 449.2C428.7 459.3 471.3 468.7 514.2 460.3C557 452 600 426 642.8 424.8C685.7 423.7 728.3 447.3 771.2 453.3C814 459.3 857 447.7 878.5 441.8L900 436L900 601L878.5 601C857 601 814 601 771.2 601C728.3 601 685.7 601 642.8 601C600 601 557 601 514.2 601C471.3 601 428.7 601 385.8 601C343 601 300 601 257.2 601C214.3 601 171.7 601 128.8 601C86 601 43 601 21.5 601L0 601Z" fill="#e7bc4b"></path><path d="M0 473L21.5 469.5C43 466 86 459 128.8 455.3C171.7 451.7 214.3 451.3 257.2 450C300 448.7 343 446.3 385.8 450.3C428.7 454.3 471.3 464.7 514.2 464.8C557 465 600 455 642.8 451.3C685.7 447.7 728.3 450.3 771.2 454.7C814 459 857 465 878.5 468L900 471L900 601L878.5 601C857 601 814 601 771.2 601C728.3 601 685.7 601 642.8 601C600 601 557 601 514.2 601C471.3 601 428.7 601 385.8 601C343 601 300 601 257.2 601C214.3 601 171.7 601 128.8 601C86 601 43 601 21.5 601L0 601Z" fill="#d9ad39"></path><path d="M0 492L21.5 498C43 504 86 516 128.8 516C171.7 516 214.3 504 257.2 496.5C300 489 343 486 385.8 490.8C428.7 495.7 471.3 508.3 514.2 512.2C557 516 600 511 642.8 506.8C685.7 502.7 728.3 499.3 771.2 496.8C814 494.3 857 492.7 878.5 491.8L900 491L900 601L878.5 601C857 601 814 601 771.2 601C728.3 601 685.7 601 642.8 601C600 601 557 601 514.2 601C471.3 601 428.7 601 385.8 601C343 601 300 601 257.2 601C214.3 601 171.7 601 128.8 601C86 601 43 601 21.5 601L0 601Z" fill="#cb9e26"></path><path d="M0 544L21.5 542.7C43 541.3 86 538.7 128.8 537.7C171.7 536.7 214.3 537.3 257.2 542C300 546.7 343 555.3 385.8 558.7C428.7 562 471.3 560 514.2 561.3C557 562.7 600 567.3 642.8 569.2C685.7 571 728.3 570 771.2 564.8C814 559.7 857 550.3 878.5 545.7L900 541L900 601L878.5 601C857 601 814 601 771.2 601C728.3 601 685.7 601 642.8 601C600 601 557 601 514.2 601C471.3 601 428.7 601 385.8 601C343 601 300 601 257.2 601C214.3 601 171.7 601 128.8 601C86 601 43 601 21.5 601L0 601Z" fill="#be8f0c"></path></svg>